:SAMPLES-PER-SECOND 30
:FRAME-RANGE 1-2009
:FULLY-SPECIFIED
:DEGREES
126
root  -42.5472 38.4856 -63.152 1.74704 -12.7664 -1.45802
RightUpLeg  -18.6677 1.65992 3.07989
RightLeg  -2.97567 -23.0129 4.57601
RightFoot  12.146 0.938729 -4.1079
RightToes  4.71047e-010 1.2921e-014 -6.02303e-014
Spine  0.305639 -3.73331 -0.0317398
Spine1  0.265019 -4.58461 3.92314
HEad  8.64999 21.8638 -4.65877
LeftShoulder1  1.46901 -1.40146 -23.6914
LeftArm  -10.9639 -40.7361 -23.0433
LeftForeArm  19.3176 -8.46819 -13.8508
LeftHand  -0.0585617 0.794521 1.38797
RightShoulder  4.77903 4.53839 52.05
RightArm  27.608 -5.56879 13.2308
RightForeArm  14.4106 3.08563 17.8272
RightHand  0.373319 0.304153 7.60649
LeftUpLeg  10.1613 14.4928 5.19817
LeftLeg  15.4712 -0.534715 -3.44509
LeftFoot  -21.0833 -0.423724 -6.4497
LeftToes  2.15783e-011 -7.56106e-012 -8.20802e-012
127
root  -42.9268 38.5435 -61.8726 1.04953 -12.7147 -2.63235
RightUpLeg  -19.0446 0.487163 4.76235
RightLeg  4.79542 -21.4527 1.77047
RightFoot  7.54752 0.478852 -2.56532
RightToes  4.71047e-010 1.2921e-014 -6.02303e-014
Spine  1.36435 -3.18619 3.52908
Spine1  0.522933 -3.91503 3.00052
HEad  8.34807 21.5952 -5.82699
LeftShoulder1  1.55457 -1.37841 -25.6727
LeftArm  -6.78725 -33.5569 -25.0373
LeftForeArm  23.9015 -7.13584 -14.4316
LeftHand  -0.0957441 0.235741 2.14931
RightShoulder  4.9928 4.85069 52.3332
RightArm  24.2093 -5.86369 12.7647
RightForeArm  16.2827 3.07695 17.47
RightHand  0.367296 -0.59058 9.01899
LeftUpLeg  12.3138 18.0556 8.21546
LeftLeg  18.0141 -4.74532 -2.61541
LeftFoot  -19.8303 -0.641429 -10.2198
LeftToes  2.15783e-011 -7.56106e-012 -8.20802e-012
128
root  -43.3454 38.6119 -60.6576 0.222855 -13.2007 -2.54639
RightUpLeg  -18.5446 -3.08976 6.22764
RightLeg  10.0226 -17.1205 -0.270533
RightFoot  4.12842 0.400452 -2.73833
RightToes  4.71047e-010 1.2921e-014 -6.02303e-014
Spine  2.85814 -2.5878 4.53446
Spine1  0.439779 -3.28384 3.47423
HEad  7.92134 21.5899 -6.51192
LeftShoulder1  1.59029 -1.22801 -27.5004
LeftArm  -5.18035 -24.7614 -25.5875
LeftForeArm  30.0229 -4.28859 -15.227
LeftHand  -0.164644 -0.316934 3.41131
RightShoulder  5.31285 5.43582 52.0463
RightArm  22.3749 -5.66677 12.8204
RightForeArm  16.277 2.76704 17.4256
RightHand  0.384246 -0.0823738 8.45356
LeftUpLeg  12.1994 18.9555 9.35585
LeftLeg  23.5547 -5.1465 -2.11546
LeftFoot  -16.2032 -0.564233 -15.4864
LeftToes  2.15783e-011 -7.56106e-012 -8.20802e-012
129
root  -43.753 38.6742 -59.5542 -0.232224 -12.8567 -2.20612
RightUpLeg  -17.7143 -2.93023 5.83779
RightLeg  13.1575 -17.5451 -0.968088
RightFoot  1.43327 0.417912 -3.64227
RightToes  4.71047e-010 1.2921e-014 -6.02303e-014
Spine  4.62078 -2.42388 5.24963
Spine1  -0.266041 -2.9123 4.11189
HEad  8.12065 21.0775 -5.4094
LeftShoulder1  1.55552 -1.01761 -28.3146
LeftArm  -2.03999 -16.1861 -24.5864
LeftForeArm  31.6557 -0.577572 -16.3631
LeftHand  -0.223102 -0.29312 4.62612
RightShoulder  5.29146 5.42185 51.9216
RightArm  22.9535 -5.55131 13.0938
RightForeArm  14.953 4.27877 17.0068
RightHand  0.390595 0.0477305 8.36901
LeftUpLeg  8.62415 16.6302 9.35007
LeftLeg  32.1066 -2.87234 -1.59123
LeftFoot  -8.37433 0.588339 -20.5957
LeftToes  2.15783e-011 -7.56106e-012 -8.20802e-012
130
root  -44.0959 38.5389 -58.5132 -0.428329 -12.1851 -2.53755
RightUpLeg  -17.7365 -4.0804 6.2834
RightLeg  17.6414 -16.827 -2.10605
RightFoot  -2.30502 0.217663 -2.95002
RightToes  4.71047e-010 1.2921e-014 -6.02303e-014
Spine  6.71317 -2.39008 7.78865
Spine1  -1.46472 -2.10492 3.19129
HEad  7.76888 19.1888 -3.81661
LeftShoulder1  1.48278 -0.774712 -28.5708
LeftArm  5.78503 -8.83749 -21.9483
LeftForeArm  26.1681 0.30459 -17.5464
LeftHand  -0.262216 -0.317266 5.40982
RightShoulder  4.83188 4.7089 51.5447
RightArm  26.4161 -5.67758 13.7522
RightForeArm  10.7713 8.13142 15.7156
RightHand  0.379953 -0.0226059 8.25816
LeftUpLeg  2.77032 13.5605 9.52803
LeftLeg  43.0874 -1.26083 -0.872837
LeftFoot  1.97866 2.33767 -19.9476
LeftToes  2.15783e-011 -7.56106e-012 -8.20802e-012
131
root  -44.4036 38.2771 -57.4946 -0.78154 -12.097 -3.69696
RightUpLeg  -17.4233 -4.58061 7.66197
RightLeg  22.1069 -16.2459 -3.50083
RightFoot  -6.04405 0.0540254 -2.05199
RightToes  4.71047e-010 1.2921e-014 -6.02303e-014
Spine  7.70913 -2.36635 11.2047
Spine1  -0.0918193 -1.18762 2.0492
HEad  5.55122 17.2197 -3.03173
LeftShoulder1  1.25683 -0.198899 -27.8329
LeftArm  13.81 -2.42543 -18.5639
LeftForeArm  20.2948 -2.46938 -17.819
LeftHand  -0.365571 -1.04029 6.73672
RightShoulder  5.07104 5.1984 51.0589
RightArm  32.3347 -5.25721 14.3788
RightForeArm  4.02915 12.8408 13.3821
RightHand  0.357888 -0.555806 8.72218
LeftUpLeg  -2.67319 11.4799 10.7008
LeftLeg  52.7228 -0.976157 -0.923062
LeftFoot  12.1208 2.95038 -14.504
LeftToes  2.15783e-011 -7.56106e-012 -8.20802e-012
132
root  -44.7767 38.3189 -56.3628 -1.23247 -12.7277 -3.56721
RightUpLeg  -15.6512 -4.54021 7.86581
RightLeg  23.7494 -16.1942 -4.31673
RightFoot  -8.13462 0.0186315 -2.63063
RightToes  4.71047e-010 1.2921e-014 -6.02303e-014
Spine  8.20893 -1.80151 11.8348
Spine1  0.52985 -0.237808 1.54435
HEad  3.82269 15.3646 -2.43863
LeftShoulder1  1.05306 0.205505 -25.7436
LeftArm  17.0196 4.13484 -15.736
LeftForeArm  20.7775 -5.28342 -16.9876
LeftHand  -0.377634 -1.18804 6.81098
RightShoulder  5.82743 6.52915 50.8857
RightArm  34.1656 -3.93417 14.2635
RightForeArm  2.6458 13.8863 12.7062
RightHand  0.340897 -0.244729 7.76461
LeftUpLeg  -7.31447 10.1155 10.4557
LeftLeg  59.517 -0.438892 -0.267316
LeftFoot  9.6301 2.47916 -13.6616
LeftToes  2.15783e-011 -7.56106e-012 -8.20802e-012
133
root  -45.1388 38.4201 -55.2141 -1.3904 -13.5646 -3.12305
RightUpLeg  -13.6221 -4.27589 7.55894
RightLeg  24.0629 -15.5958 -4.35505
RightFoot  -10.0779 -0.0453795 -2.06696
RightToes  4.71047e-010 1.2921e-014 -6.02303e-014
Spine  8.31619 -0.986752 11.9541
Spine1  0.429827 0.720148 1.27749
HEad  3.47365 13.771 -2.22373
LeftShoulder1  0.874688 0.591196 -23.7568
LeftArm  25.7062 9.59574 -13.0562
LeftForeArm  16.1669 -9.95209 -15.3429
LeftHand  -0.445832 -1.70276 7.47421
RightShoulder  6.47789 7.70166 50.6443
RightArm  35.0503 -2.61453 13.7691
RightForeArm  2.64066 14.6377 12.1191
RightHand  0.294331 -0.356381 6.87645
LeftUpLeg  -11.9173 8.70711 9.50909
LeftLeg  63.1106 -0.459569 -0.382765
LeftFoot  6.86463 1.89379 -12.0462
LeftToes  2.15783e-011 -7.56106e-012 -8.20802e-012
134
root  -45.4989 38.5769 -54.001 -1.79912 -14.5016 -2.43718
RightUpLeg  -10.6803 -4.21352 6.78483
RightLeg  23.1189 -14.6351 -3.68925
RightFoot  -11.6844 -0.0836448 -1.53793
RightToes  4.71047e-010 1.2921e-014 -6.02303e-014
Spine  8.34263 -0.14917 11.7945
Spine1  -0.159359 1.6006 0.870609
HEad  4.70174 12.4881 -2.07979
LeftShoulder1  0.773309 0.785378 -22.0829
LeftArm  34.8596 13.7522 -10.1981
LeftForeArm  9.59091 -13.5742 -13.4995
LeftHand  -0.477196 -1.57129 8.12863
RightShoulder  6.99063 8.65935 50.3489
RightArm  32.4132 -1.1266 13.3184
RightForeArm  5.72029 13.6042 12.6696
RightHand  0.26306 -0.53028 6.39913
LeftUpLeg  -15.5451 7.06616 8.23069
LeftLeg  63.3201 -0.438181 -0.342527
LeftFoot  4.84538 1.51203 -10.8163
LeftToes  2.15783e-011 -7.56106e-012 -8.20802e-012
